<svg xmlns="http://www.w3.org/2000/svg" xmlns:xlink="http://www.w3.org/1999/xlink" viewBox="0 0 32 32" width="24" height="24" style="" filter="none">
  <g>
  <path d="M16 14.667c3.682 0 6.667 2.985 6.667 6.667v0 8h-13.333v-8c0-3.682 2.985-6.667 6.667-6.667v0zM7.051 18.675c-0.2 0.649-0.334 1.401-0.372 2.178l-0.001 0.022-0.011 0.459v8h-4v-6c0-0 0-0.001 0-0.001 0-2.398 1.809-4.374 4.137-4.637l0.021-0.002 0.227-0.019zM24.949 18.675c2.453 0.154 4.384 2.181 4.384 4.659v6h-4v-8c0-0.924-0.133-1.816-0.384-2.659zM7.333 10.667c1.841 0 3.333 1.492 3.333 3.333s-1.492 3.333-3.333 3.333v0c-1.841 0-3.333-1.492-3.333-3.333s1.492-3.333 3.333-3.333v0zM24.667 10.667c1.841 0 3.333 1.492 3.333 3.333s-1.492 3.333-3.333 3.333v0c-1.841 0-3.333-1.492-3.333-3.333s1.492-3.333 3.333-3.333v0zM16 2.667c2.946 0 5.333 2.388 5.333 5.333s-2.388 5.333-5.333 5.333v0c-2.946 0-5.333-2.388-5.333-5.333s2.388-5.333 5.333-5.333v0z" fill="rgba(16,16,16,1)"></path>
  </g>
</svg>